<svg width="49" height="49" viewBox="0 0 49 49" fill="none" xmlns="http://www.w3.org/2000/svg">
<path d="M24.375 0C10.9137 0 0 10.9137 0 24.375C0 37.8152 10.9359 48.75 24.375 48.75C37.8352 48.75 48.75 37.8352 48.75 24.375C48.75 10.9348 37.8152 0 24.375 0ZM37.0312 28.125H22.9688C22.8444 28.125 22.7252 28.0756 22.6373 27.9877C22.5494 27.8998 22.5 27.7806 22.5 27.6562V7.96875C22.5 7.84443 22.5494 7.7252 22.6373 7.63729C22.7252 7.54939 22.8444 7.5 22.9688 7.5H25.7812C25.9056 7.5 26.0248 7.54939 26.1127 7.63729C26.2006 7.7252 26.25 7.84443 26.25 7.96875V24.375H37.0312C37.1556 24.375 37.2748 24.4244 37.3627 24.5123C37.4506 24.6002 37.5 24.7194 37.5 24.8438V27.6562C37.5 27.7806 37.4506 27.8998 37.3627 27.9877C37.2748 28.0756 37.1556 28.125 37.0312 28.125Z" fill="#D0A87D"/>
</svg>
