<svg width="277" height="117" viewBox="0 0 277 117" fill="none" xmlns="http://www.w3.org/2000/svg">
<path d="M21.7498 77.85C21.1498 77.65 20.4998 77.5 19.7998 77.4C19.1998 77.3 18.5498 77.15 17.8498 76.95L18.5998 77.4C18.1998 77.4 17.7998 77.3 17.3998 77.1C17.0998 77 16.7998 77 16.4998 77.1L13.6498 76.35L13.4998 76.2C13.0998 75.8 12.6998 75.45 12.2998 75.15C11.8998 74.85 11.3498 74.8 10.6498 75C10.8498 75.1 11.0498 75.15 11.2498 75.15C11.4498 75.15 11.5998 75.25 11.6998 75.45H11.3998C10.9998 75.45 10.6998 75.35 10.4998 75.15C10.2998 74.95 10.0498 74.75 9.74981 74.55C8.24981 73.65 6.89981 72.6 5.69981 71.4V71.25C5.29981 70.75 4.99981 70.25 4.79981 69.75C4.59981 69.15 4.2498 68.7 3.7498 68.4H3.5998C3.2998 67.8 2.9998 67.15 2.6998 66.45C2.4998 65.65 2.2998 64.9 2.0998 64.2C2.0998 63.9 2.0498 63.65 1.9498 63.45C1.9498 63.15 1.9498 62.85 1.9498 62.55C1.9498 62.15 1.9498 61.8 1.9498 61.5C2.0498 61.1 2.1498 60.7 2.2498 60.3C1.7498 60.5 1.4998 60.35 1.4998 59.85C1.3998 58.75 1.3498 57.65 1.3498 56.55C1.4498 55.45 1.5998 54.25 1.7998 52.95L2.2498 50.7C2.4498 50.2 2.7498 49.85 3.1498 49.65C3.5498 49.45 3.6998 49.1 3.5998 48.6C3.4998 48.6 3.3998 48.65 3.2998 48.75C3.1998 48.85 3.0498 48.9 2.8498 48.9C2.8498 48.9 2.7998 48.9 2.6998 48.9C2.6998 48.8 2.6998 48.7 2.6998 48.6H2.8498V48.45C2.7498 48.35 2.7498 48.3 2.8498 48.3C2.9498 48.3 2.9498 48.25 2.8498 48.15V48C2.8498 47.7 2.8998 47.4 2.9998 47.1C3.1998 46.8 3.3498 46.5 3.4498 46.2C3.0498 46.3 2.5498 46.35 1.9498 46.35H1.7998C1.2998 46.35 0.849805 46.05 0.449805 45.45C0.149805 44.85 -0.000195256 44.2 -0.000195256 43.5C0.199805 42.2 0.649805 41.35 1.3498 40.95C1.3498 40.75 1.5498 40.65 1.9498 40.65C2.5498 40.65 3.1998 40.6 3.8998 40.5C4.5998 40.4 5.2998 40.3 5.9998 40.2L7.04981 37.95H7.1998C7.99981 37.95 8.34981 37.75 8.2498 37.35C8.2498 36.95 8.2498 36.5 8.2498 36V35.85L9.44981 33.9C10.0498 33.6 10.4498 33.15 10.6498 32.55C10.8498 31.85 11.1498 31.3 11.5498 30.9C11.7498 30.4 12.0498 30 12.4498 29.7C12.8498 29.3 13.1998 28.85 13.4998 28.35C14.0998 27.55 14.6998 26.8 15.2998 26.1C15.8998 25.3 16.5498 24.55 17.2498 23.85C17.7498 23.65 18.0998 23.4 18.2998 23.1C18.4998 22.8 18.7498 22.45 19.0498 22.05C19.0498 21.95 19.0498 21.9 19.0498 21.9C19.1498 21.9 19.1998 21.85 19.1998 21.75C19.4998 21.35 19.8998 21.1 20.3998 21C20.8998 20.9 21.2498 20.6 21.4498 20.1C21.6498 19.6 21.9498 19.15 22.3498 18.75C23.1498 17.95 23.9998 17.2 24.8998 16.5C25.7998 15.7 26.6998 14.95 27.5998 14.25C28.1998 14.15 28.6498 14.05 28.9498 13.95C29.2498 13.75 29.3998 13.35 29.3998 12.75H29.5498C30.6498 11.95 31.7498 11.2 32.8498 10.5C33.9498 9.80004 34.9998 9.15005 35.9998 8.55005C36.7998 8.05005 37.5498 7.60005 38.2498 7.20005C39.0498 6.80005 39.7998 6.40004 40.4998 6.00004H40.9498C41.3498 6.00004 41.6498 5.90004 41.8498 5.70004C42.0498 5.50005 42.2998 5.25005 42.5998 4.95004H42.7498C50.1498 1.65004 56.9998 4.53591e-05 63.2998 4.53591e-05C64.0998 4.53591e-05 64.9498 0.0500447 65.8498 0.150043C66.7498 0.150043 67.5998 0.200044 68.3998 0.300046C71.6998 0.700047 74.4498 1.60005 76.6498 3.00005C78.8498 4.30005 80.4498 5.90005 81.4498 7.80005C82.5498 10 82.9498 12.2 82.6498 14.4C82.5498 14.9 82.3998 15.4 82.1998 15.9C82.0998 16.4 81.9498 16.9 81.7498 17.4C81.6498 17.5 81.4498 17.7 81.1498 18C80.8498 18.2 80.5998 18.4 80.3998 18.6C79.7998 19.5 79.3998 20.2 79.1998 20.7C78.9998 21.1 78.7998 21.4 78.5998 21.6L83.2498 19.05C83.9498 18.65 84.5498 18.45 85.0498 18.45C86.2498 18.45 86.8498 19.1 86.8498 20.4C86.8498 21.6 86.2998 22.6 85.1998 23.4C84.6998 23.8 83.6498 24.3 82.0498 24.9C80.4498 25.5 79.2998 26 78.5998 26.4C78.2998 26.6 78.0498 26.7 77.8498 26.7C77.6498 26.7 77.5498 26.55 77.5498 26.25C77.5498 25.95 77.2498 25.9 76.6498 26.1C76.4498 26.2 76.3498 26.3 76.3498 26.4V26.55C76.3498 26.75 76.0498 27.05 75.4498 27.45C75.1498 27.65 74.7498 27.8 74.2498 27.9C73.7498 27.9 73.3498 28 73.0498 28.2C72.6498 28.3 71.7498 28.55 70.3498 28.95C69.0498 29.35 68.0998 29.65 67.4998 29.85C67.3998 29.85 66.9998 29.95 66.2998 30.15C65.6998 30.35 65.1498 30.45 64.6498 30.45C64.5498 30.45 64.4498 30.4 64.3498 30.3C64.3498 30.1 64.2998 30 64.1998 30C64.0998 29.9 63.9498 29.75 63.7498 29.55C63.6498 29.35 63.7498 29.2 64.0498 29.1C64.3498 28.9 64.7998 28.75 65.3998 28.65C65.9998 28.55 66.3498 28.55 66.4498 28.65H66.5998C66.7998 28.65 66.9998 28.6 67.1998 28.5C67.3998 28.4 67.5998 28.3 67.7998 28.2L69.1498 27.45C69.2498 27.25 69.5498 26.95 70.0498 26.55C70.5498 26.15 70.8998 25.85 71.0998 25.65C71.7998 24.95 72.3998 24.6 72.8998 24.6C73.4998 24.6 74.0498 24.35 74.5498 23.85C75.6498 22.15 76.1498 21.1 76.0498 20.7C75.9498 20.2 75.8998 19.75 75.8998 19.35C75.8998 18.65 76.1498 18.3 76.6498 18.3C77.2498 18.2 77.6498 17.95 77.8498 17.55C77.5498 17.35 77.2998 17.2 77.0998 17.1C76.8998 17 76.8998 16.75 77.0998 16.35V16.2C77.1998 16 77.3998 15.9 77.6998 15.9C78.0998 15.8 78.2998 15.65 78.2998 15.45V15.3C78.2998 15.1 78.1998 14.9 77.9998 14.7C77.7998 14.4 77.7498 14.1 77.8498 13.8C78.2498 12.7 78.4498 11.55 78.4498 10.35C78.4498 7.85005 77.4998 6.05004 75.5998 4.95004C73.6998 3.85005 71.3998 3.30005 68.6998 3.30005C68.2998 3.30005 67.8998 3.30005 67.4998 3.30005C67.0998 3.30005 66.6498 3.35005 66.1498 3.45005C65.2498 3.55004 64.3498 3.70004 63.4498 3.90004C62.5498 4.10004 61.5998 4.30005 60.5998 4.50005H60.2998C59.8998 4.50005 59.5498 4.60005 59.2498 4.80005C58.9498 4.90004 58.6498 5.05004 58.3498 5.25004C56.9498 5.65005 55.3998 6.20005 53.6998 6.90005C52.7998 7.10005 52.1498 7.40005 51.7498 7.80005C51.3498 8.00005 51.0998 8.10004 50.9998 8.10004V8.25005C50.3998 8.45005 49.8998 8.55005 49.4998 8.55005C49.2998 8.55005 49.0498 8.55005 48.7498 8.55005C48.4498 8.45005 48.1498 8.40004 47.8498 8.40004C48.0498 8.50005 48.1998 8.55005 48.2998 8.55005C48.3998 8.55005 48.4998 8.60005 48.5998 8.70005C48.6998 9.00004 48.5998 9.20004 48.2998 9.30005C48.0998 9.40005 47.9498 9.55004 47.8498 9.75005H47.6998C47.5998 9.85005 47.3998 9.95005 47.0998 10.05C46.8998 10.15 46.6998 10.3 46.4998 10.5C45.5998 10.6 44.7998 10.9 44.0998 11.4C43.4998 11.9 42.9498 12.45 42.4498 13.05H42.2998L38.8498 15.45C38.0498 15.85 37.3498 16.35 36.7498 16.95C35.4498 17.95 34.1498 19 32.8498 20.1C31.5498 21.2 30.2498 22.3 28.9498 23.4H28.6498C28.1498 23.4 27.8498 23.55 27.7498 23.85C27.7498 24.05 27.6498 24.4 27.4498 24.9H27.2998C26.9998 25.3 26.6498 25.65 26.2498 25.95C25.8498 26.05 25.5998 26.25 25.4998 26.55C25.3998 26.85 25.1998 27.15 24.8998 27.45L23.8498 28.5C23.4498 28.4 22.9998 28.25 22.4998 28.05C22.0998 27.75 21.6498 27.6 21.1498 27.6C21.1498 27.6 21.0998 27.65 20.9998 27.75C20.9998 27.75 20.9998 27.85 20.9998 28.05C21.5998 28.15 22.0998 28.4 22.4998 28.8C22.8998 29.2 22.8498 29.65 22.3498 30.15L22.0498 30.45C21.6498 30.85 21.1498 31 20.5498 30.9C20.0498 30.8 19.5998 31 19.1998 31.5C19.3998 31.6 19.6498 31.65 19.9498 31.65C20.2498 31.65 20.3998 31.9 20.3998 32.4L17.5498 36C17.2498 36.4 16.8998 36.85 16.4998 37.35C16.1998 37.75 15.7998 38.1 15.2998 38.4C15.1998 38.5 15.1498 38.65 15.1498 38.85C15.2498 38.95 15.2498 39.05 15.1498 39.15V39.3C15.6498 39.2 16.0998 39.1 16.4998 39C16.8998 38.9 17.2998 38.8 17.6998 38.7L26.6998 38.1C28.4998 37.9 30.5998 37.75 32.9998 37.65C35.3998 37.45 37.3998 37.35 38.9998 37.35H39.4498C39.7498 37.35 39.8498 37.4 39.7498 37.5C39.7498 37.6 40.0498 37.65 40.6498 37.65C41.5498 37.55 42.1498 37.45 42.4498 37.35C42.7498 37.25 43.3498 37.15 44.2498 37.05C45.6498 36.95 47.3498 36.9 49.3498 36.9C51.3498 36.9 52.8998 36.9 53.9998 36.9C54.6998 37 55.5498 37.05 56.5498 37.05C57.6498 37.05 58.4498 37.1 58.9498 37.2C59.2498 37.3 59.3998 37.5 59.3998 37.8C59.4998 38 59.6998 38.1 59.9998 38.1C60.4998 38.1 60.7498 38 60.7498 37.8C60.7498 37.6 60.9498 37.5 61.3498 37.5L63.1498 37.65L65.9998 38.1C66.5998 38.2 67.0498 38.4 67.3498 38.7C67.7498 39 67.9498 39.25 67.9498 39.45C67.9498 39.75 67.5498 39.85 66.7498 39.75C66.4498 39.65 65.9998 39.65 65.3998 39.75C64.8998 39.75 64.4998 39.7 64.1998 39.6H63.4498C62.1498 39.6 60.1998 39.55 57.5998 39.45C54.9998 39.35 52.6498 39.35 50.5498 39.45C50.2498 39.45 50.0998 39.35 50.0998 39.15C50.1998 38.85 50.1498 38.65 49.9498 38.55C49.3498 38.55 48.9498 38.7 48.7498 39C48.5498 39.2 48.3498 39.3 48.1498 39.3L46.6498 39.75C43.2498 40.05 39.8998 40.45 36.5998 40.95C33.3998 41.45 30.0498 42 26.5498 42.6C26.1498 42.7 25.7498 42.75 25.3498 42.75C25.0498 42.75 24.7998 42.75 24.5998 42.75C23.3998 42.75 22.7998 42.55 22.7998 42.15C22.7998 41.75 22.3998 41.55 21.5998 41.55C20.8998 41.95 20.1498 42.25 19.3498 42.45C18.6498 42.65 18.2998 42.85 18.2998 43.05C18.2998 43.25 17.7998 43.5 16.7998 43.8C15.8998 44.1 14.8998 44.35 13.7998 44.55C12.7998 44.75 12.1498 44.85 11.8498 44.85C11.8498 45.05 11.7498 45.25 11.5498 45.45C11.3498 45.55 11.1998 45.7 11.0998 45.9L10.3498 47.7C9.34981 50 8.6498 52.05 8.2498 53.85C7.64981 55.75 7.34981 57.55 7.34981 59.25C7.24981 59.65 7.04981 60.05 6.74981 60.45C6.54981 60.75 6.59981 61.1 6.8998 61.5C7.0998 61.7 7.24981 61.85 7.34981 61.95C7.44981 61.95 7.4998 62.15 7.4998 62.55C7.4998 63.05 7.54981 63.4 7.64981 63.6V64.05C7.64981 64.35 7.54981 64.65 7.34981 64.95C7.14981 65.25 7.09981 65.55 7.1998 65.85C7.29981 65.95 7.49981 66 7.79981 66C8.0998 65.9 8.2998 65.95 8.39981 66.15L9.2998 67.8C9.59981 68 9.79981 68.3 9.8998 68.7C9.99981 69.1 10.0998 69.4 10.1998 69.6C10.3998 69.8 10.6498 70 10.9498 70.2C11.2498 70.3 11.4498 70.5 11.5498 70.8C11.5498 70.9 11.4998 71 11.3998 71.1C11.3998 71.1 11.3998 71.2 11.3998 71.4C11.8998 71.2 11.9498 70.8 11.5498 70.2C12.1498 70.6 12.1498 71 11.5498 71.4C11.7498 71.4 11.9498 71.4 12.1498 71.4C12.3498 71.3 12.5498 71.25 12.7498 71.25C13.1498 71.25 13.5498 71.4 13.9498 71.7C15.5498 72.5 17.3498 73.05 19.3498 73.35C21.4498 73.75 23.6998 73.95 26.0998 73.95C28.7998 73.95 31.6998 73.7 34.7998 73.2C37.8998 72.8 40.9998 72.25 44.0998 71.55V71.4C44.2998 71.4 44.4498 71.45 44.5498 71.55C44.6498 71.55 44.7498 71.55 44.8498 71.55C45.3498 71.55 45.7998 71.35 46.1998 70.95L47.8498 70.5C48.6498 70 49.3998 69.6 50.0998 69.3C50.7998 69 51.5498 68.95 52.3498 69.15C52.5498 69.25 52.5498 69.35 52.3498 69.45C52.2498 69.45 52.1998 69.55 52.1998 69.75C52.3998 69.65 52.5498 69.5 52.6498 69.3C52.7498 69.1 52.8998 68.95 53.0998 68.85L53.9998 68.55C54.6998 68.45 55.2998 68.3 55.7998 68.1C56.2998 67.8 56.8498 67.55 57.4498 67.35L59.0998 66.75C59.2998 66.85 59.4998 66.9 59.6998 66.9C60.0998 66.9 60.3998 66.8 60.5998 66.6C60.7998 66.3 61.0998 66 61.4998 65.7C61.5998 65.7 61.8498 65.6 62.2498 65.4C62.7498 65.2 63.2998 65.05 63.8998 64.95C64.4998 64.75 64.9998 64.45 65.3998 64.05H65.5498C67.0498 63.35 68.4998 62.65 69.8998 61.95C71.2998 61.25 72.6498 60.55 73.9498 59.85L77.9998 57.6C78.4998 57.2 78.8998 56.85 79.1998 56.55C79.4998 56.25 79.8998 56.1 80.3998 56.1L80.5498 55.95C81.2498 55.25 81.9998 54.7 82.7998 54.3C83.5998 53.8 84.2498 53.3 84.7498 52.8C85.5498 52.1 86.1498 51.75 86.5498 51.75C86.8498 51.75 86.9998 51.95 86.9998 52.35C86.9998 52.85 86.6998 53.4 86.0998 54C85.1998 54.8 84.1998 55.7 83.0998 56.7C81.9998 57.7 80.7498 58.75 79.3498 59.85C78.8498 60.25 78.2998 60.5 77.6998 60.6C77.1998 60.7 76.8498 61.05 76.6498 61.65C76.0498 62.05 75.3998 62.45 74.6998 62.85C74.0998 63.25 73.3998 63.65 72.5998 64.05C71.6998 64.55 70.7498 65.05 69.7498 65.55C68.8498 66.05 67.8498 66.55 66.7498 67.05C66.4498 67.05 66.0998 67.05 65.6998 67.05C65.3998 66.95 65.0998 66.9 64.7998 66.9C64.0998 66.9 63.5998 67.05 63.2998 67.35C63.2998 67.35 63.2998 67.4 63.2998 67.5C63.2998 67.5 63.3498 67.6 63.4498 67.8C63.6498 67.8 63.8498 67.8 64.0498 67.8C64.2498 67.7 64.4498 67.7 64.6498 67.8C64.6498 67.8 64.6498 67.85 64.6498 67.95C64.6498 68.05 64.5498 68.1 64.3498 68.1C63.9498 68.3 63.6498 68.4 63.4498 68.4V68.55L62.3998 69H62.2498C61.8498 69.4 61.5498 69.3 61.3498 68.7C61.0498 68.8 60.7498 69 60.4498 69.3C60.2498 69.6 59.9998 69.85 59.6998 70.05L58.6498 70.5C58.2498 70.6 57.8498 70.7 57.4498 70.8C57.0498 70.8 56.7498 70.95 56.5498 71.25H56.3998C55.9998 71.45 55.4998 71.65 54.8998 71.85C54.3998 71.95 53.8998 72.1 53.3998 72.3V72.45H52.6498C52.1498 72.45 51.5998 72.4 50.9998 72.3C50.3998 72.1 49.7998 72 49.1998 72C49.3998 72.3 49.7498 72.45 50.2498 72.45C50.7498 72.55 50.8998 72.8 50.6998 73.2C50.6998 73.3 50.6498 73.35 50.5498 73.35L46.6498 74.4V74.55C46.2498 74.65 45.7998 74.7 45.2998 74.7C44.8998 74.8 44.4998 74.95 44.0998 75.15C40.1998 76.15 36.3498 76.85 32.5498 77.25C28.7498 77.65 25.1998 77.85 21.8998 77.85H21.7498ZM84.3596 116.25C81.0596 116.25 78.3596 115.6 76.2596 114.3C74.1596 113 73.1096 111.1 73.1096 108.6C73.2096 108.5 73.3096 108.05 73.4096 107.25C73.5096 106.55 73.5096 106.1 73.4096 105.9L74.0096 104.7C74.4096 104 74.7596 103.55 75.0596 103.35H75.2096V103.2C75.2096 103 75.2596 102.75 75.3596 102.45C75.4596 102.25 75.5596 102.1 75.6596 102L76.2596 100.95L77.3096 100.5H77.4596V100.35C77.3596 100.05 77.8096 99.4001 78.8096 98.4001C79.7096 97.4 80.7596 96.35 81.9596 95.2501C83.1596 94.15 84.0096 93.45 84.5096 93.1501L87.0596 91.05C87.3596 90.75 87.7596 90.45 88.2596 90.15C88.6596 89.95 89.0096 89.8 89.3096 89.7C89.6096 89.4 89.9096 89.1 90.2096 88.8C90.6096 88.6 90.9596 88.4 91.2596 88.2C91.4596 88 91.7096 87.8 92.0096 87.6C92.4096 87.4 92.7596 87.25 93.0596 87.15C93.1596 86.95 93.4096 86.75 93.8096 86.55C94.0096 86.35 94.2096 86.2 94.4096 86.1C94.7096 86 94.9096 85.9 95.0096 85.8L98.1596 84C99.9596 82.9 101.11 82.2 101.61 81.9C102.11 81.6 102.71 81.25 103.41 80.85C103.61 80.65 103.86 80.45 104.16 80.25C104.56 80.15 104.51 80.05 104.01 79.95C101.81 79.05 100.06 78.05 98.7596 76.95L98.4596 76.5L98.1596 76.2C98.0596 75.9 97.9096 75.75 97.7096 75.75H97.5596C97.2596 75.75 97.0096 75.65 96.8096 75.45C96.4096 75.25 95.9096 74.9 95.3096 74.4C94.8096 73.9 94.4596 73.5 94.2596 73.2C94.1596 72.9 94.0096 72.6 93.8096 72.3C93.6096 72 93.4596 71.65 93.3596 71.25C93.2596 71.25 93.1096 71.1 92.9096 70.8C92.7096 70.6 92.6096 70.25 92.6096 69.75C92.5096 69.55 92.4596 69.4 92.4596 69.3C92.4596 69.1 92.4096 68.95 92.3096 68.85C92.2096 68.65 92.1596 68.4 92.1596 68.1C92.1596 67.8 92.1596 67.55 92.1596 67.35V66.75C92.0596 66.45 92.0096 66 92.0096 65.4C92.0096 64.5 92.2596 63.55 92.7596 62.55C92.9596 62.35 93.0596 62.2 93.0596 62.1C93.4596 61.1 94.6596 60.6 96.6596 60.6C96.9596 60.6 97.2596 60.65 97.5596 60.75C97.9596 60.75 98.3096 60.75 98.6096 60.75H100.11C100.11 60.75 100.16 60.75 100.26 60.75C100.36 60.65 100.46 60.6 100.56 60.6C100.56 60.6 100.61 60.6 100.71 60.6C100.81 60.5 100.91 60.45 101.01 60.45L101.46 60.6C101.56 60.6 101.71 60.65 101.91 60.75C102.11 60.75 102.26 60.75 102.36 60.75H102.81L102.21 60.45V60C102.21 59.5 102.11 59.05 101.91 58.65C101.71 58.25 101.51 57.95 101.31 57.75C101.51 57.55 101.61 57.35 101.61 57.15C101.61 56.95 101.51 56.7 101.31 56.4C101.21 56 101.11 55.65 101.01 55.35C101.41 55.15 101.51 54.85 101.31 54.45C101.31 54.35 101.26 54.2 101.16 54C101.06 53.8 101.01 53.6 101.01 53.4V51.45L102.21 49.5C102.31 49.4 102.31 49.25 102.21 49.05C102.21 48.75 102.26 48.5 102.36 48.3C102.46 47.9 102.66 47.55 102.96 47.25C103.36 46.95 103.61 46.6 103.71 46.2C103.81 46.1 103.86 45.75 103.86 45.15C104.46 44.85 105.11 44.15 105.81 43.05C105.91 42.95 105.96 42.75 105.96 42.45C106.06 42.15 106.16 41.95 106.26 41.85C106.76 41.35 107.31 40.85 107.91 40.35C108.51 39.85 109.16 39.25 109.86 38.55C109.86 38.25 109.61 38.05 109.11 37.95C108.61 37.75 108.21 37.55 107.91 37.35C107.51 37.05 107.01 36.75 106.41 36.45C105.91 36.05 105.56 35.85 105.36 35.85C105.16 35.85 105.01 35.9 104.91 36C104.91 36 104.86 36 104.76 36C104.46 35.5 104.11 35.1 103.71 34.8C103.41 34.4 103.06 34.05 102.66 33.75C102.66 33.55 102.71 33.4 102.81 33.3C102.91 33.1 102.96 32.9 102.96 32.7C102.96 32.5 102.81 32.3 102.51 32.1C102.31 31.8 102.21 31.5 102.21 31.2C102.21 31 102.41 30.55 102.81 29.85C103.21 29.15 103.51 28.8 103.71 28.8C104.11 28.8 104.46 29.05 104.76 29.55C105.16 30.05 105.36 30.55 105.36 31.05C105.56 31.15 105.76 31.2 105.96 31.2C106.26 31.2 106.46 31.25 106.56 31.35C106.96 31.85 107.66 32.6 108.66 33.6C109.66 34.5 110.51 35.05 111.21 35.25C111.21 35.35 111.41 35.3 111.81 35.1C112.31 34.8 112.71 34.65 113.01 34.65C113.21 34.65 113.36 34.6 113.46 34.5C113.66 34.3 113.86 34.2 114.06 34.2C114.36 34.2 114.51 34.3 114.51 34.5C114.61 34.6 114.76 34.65 114.96 34.65C115.36 34.65 115.71 34.4 116.01 33.9C116.21 33.8 116.41 33.65 116.61 33.45C116.91 33.25 117.21 33.1 117.51 33C117.61 33 117.81 33.05 118.11 33.15C118.51 33.25 118.81 33.3 119.01 33.3C119.51 33.3 119.91 33.2 120.21 33C120.61 32.8 121.01 32.7 121.41 32.7C121.81 32.9 122.06 33.1 122.16 33.3C122.26 33.4 122.41 33.55 122.61 33.75C123.11 34.15 123.61 34.5 124.11 34.8C124.61 35.1 125.06 35.6 125.46 36.3C125.66 36.1 126.11 36 126.81 36C127.61 36 128.56 36.1 129.66 36.3C130.86 36.5 131.66 36.55 132.06 36.45C132.26 36.45 132.41 36.45 132.51 36.45C132.71 36.35 132.96 36.3 133.26 36.3C133.76 36.3 133.96 36.4 133.86 36.6C133.76 36.7 133.86 36.75 134.16 36.75C134.36 36.75 134.81 36.7 135.51 36.6C136.31 36.4 136.81 36.3 137.01 36.3C137.21 36.4 137.31 36.5 137.31 36.6C137.41 36.7 137.56 36.8 137.76 36.9C137.96 36.9 138.36 36.85 138.96 36.75C139.66 36.65 140.11 36.6 140.31 36.6C142.01 36.7 143.56 36.65 144.96 36.45C146.46 36.15 148.06 35.95 149.76 35.85C150.16 35.95 150.36 36.2 150.36 36.6C150.36 37 150.16 37.2 149.76 37.2C149.66 37.2 149.46 37.3 149.16 37.5C148.86 37.6 148.61 37.6 148.41 37.5H147.51C147.31 37.5 147.06 37.55 146.76 37.65C146.46 37.65 146.16 37.75 145.86 37.95C145.76 37.85 145.56 37.8 145.26 37.8C144.86 37.8 144.41 38 143.91 38.4C143.41 38.8 142.91 39.1 142.41 39.3C142.41 38.8 142.21 38.6 141.81 38.7C141.51 38.8 141.21 38.8 140.91 38.7C140.71 38.7 140.31 38.85 139.71 39.15C139.21 39.35 138.71 39.55 138.21 39.75C138.11 39.45 137.76 39.25 137.16 39.15C136.76 39.15 136.41 39.45 136.11 40.05C135.81 40.65 134.46 40.9 132.06 40.8C132.26 41.2 132.36 41.45 132.36 41.55C132.46 41.65 132.36 41.9 132.06 42.3C132.26 42.4 132.41 42.45 132.51 42.45C132.71 42.45 132.86 42.5 132.96 42.6C132.96 42.9 133.11 43.25 133.41 43.65C133.81 44.05 134.06 44.45 134.16 44.85C134.36 45.25 134.46 45.6 134.46 45.9C134.56 46.2 134.61 46.45 134.61 46.65C134.61 46.95 134.46 47.65 134.16 48.75C133.76 49.15 133.26 49.85 132.66 50.85C132.26 51.25 131.71 51.8 131.01 52.5C130.31 53.2 129.71 53.6 129.21 53.7C129.11 53.8 129.01 53.95 128.91 54.15C128.91 54.25 128.86 54.4 128.76 54.6C128.36 54.9 127.71 55.35 126.81 55.95C126.01 56.45 125.51 56.7 125.31 56.7C125.11 56.7 125.06 56.7 125.16 56.7C125.26 56.6 125.16 56.55 124.86 56.55C124.66 56.55 124.51 56.6 124.41 56.7C124.41 56.8 124.36 56.9 124.26 57H124.11C123.71 57 123.21 57.2 122.61 57.6C122.01 57.9 121.76 58.25 121.86 58.65C121.36 58.65 120.86 58.7 120.36 58.8C119.86 58.9 119.51 59.1 119.31 59.4C119.11 59.5 118.86 59.75 118.56 60.15C118.36 60.45 118.06 60.7 117.66 60.9C117.26 61 116.81 61.1 116.31 61.2C115.91 61.2 115.56 61.25 115.26 61.35C115.06 61.45 114.86 61.55 114.66 61.65C114.46 61.75 114.26 61.9 114.06 62.1C113.86 62.2 113.61 62.25 113.31 62.25C113.01 62.15 112.71 62.15 112.41 62.25C112.31 62.25 112.21 62.35 112.11 62.55C112.01 62.65 111.86 62.7 111.66 62.7C111.46 62.7 111.31 62.65 111.21 62.55C111.11 62.35 110.96 62.25 110.76 62.25C110.56 62.25 110.46 62.35 110.46 62.55C110.46 62.75 110.31 62.85 110.01 62.85C109.81 62.85 109.71 62.85 109.71 62.85C109.81 62.75 109.71 62.7 109.41 62.7C106.91 62.7 105.51 62.6 105.21 62.4C104.91 62.2 104.51 61.9 104.01 61.5C103.81 62.1 103.51 62.45 103.11 62.55L101.76 63L100.71 63.45L99.3596 63.9C98.9596 64.1 98.5596 64.3 98.1596 64.5C97.8596 64.6 97.6096 64.7 97.4096 64.8L96.8096 65.25C96.6096 65.45 96.5096 65.6 96.5096 65.7C96.3096 65.8 96.1096 66.25 95.9096 67.05C95.8096 67.45 95.6596 67.8 95.4596 68.1C95.2596 68.4 95.1596 68.8 95.1596 69.3C95.1596 69.8 95.3596 70.4 95.7596 71.1C95.9596 71.7 96.2096 72.15 96.5096 72.45C96.8096 72.75 97.6096 73.3 98.9096 74.1C99.1096 74.2 99.4596 74.35 99.9596 74.55C100.46 74.75 100.76 74.95 100.86 75.15C101.16 75.65 101.41 75.9 101.61 75.9C101.61 75.9 101.76 75.9 102.06 75.9C102.26 75.9 102.46 75.85 102.66 75.75C102.86 75.75 103.01 75.85 103.11 76.05C103.71 76.25 104.31 76.45 104.91 76.65C105.61 76.95 106.26 77.2 106.86 77.4L108.81 78C112.51 76.1 115.16 74.8 116.76 74.1C118.36 73.5 119.96 72.95 121.56 72.45C121.96 72.25 122.41 72.05 122.91 71.85C123.51 71.65 123.81 71.7 123.81 72C123.81 72.2 123.66 72.45 123.36 72.75C123.06 73.15 122.66 73.4 122.16 73.5C120.86 73.9 119.56 74.5 118.26 75.3C117.06 76.2 115.01 77.5 112.11 79.2C119.81 82.3 123.66 86.2 123.66 90.9C123.66 91.3 123.61 91.6501 123.51 91.9501C123.51 92.25 123.46 92.6 123.36 93.0001C123.26 93.1001 122.91 93.7501 122.31 94.9501C121.81 96.25 121.56 96.95 121.56 97.05C121.06 97.55 120.56 98.1 120.06 98.7001C119.56 99.3001 119.06 99.9001 118.56 100.5C118.16 101 117.61 101.5 116.91 102C116.31 102.5 115.71 103 115.11 103.5C114.81 104 114.01 104.65 112.71 105.45C111.41 106.35 110.11 107.2 108.81 108C107.51 108.8 106.56 109.3 105.96 109.5L102.81 111.15C102.51 111.35 102.11 111.5 101.61 111.6C101.11 111.8 100.66 111.95 100.26 112.05C99.9596 112.35 99.6096 112.55 99.2096 112.65C98.9096 112.75 98.5096 112.9 98.0096 113.1C97.8096 113.3 97.5096 113.45 97.1096 113.55C96.7096 113.65 96.3596 113.75 96.0596 113.85C95.7596 114.15 95.4096 114.3 95.0096 114.3L93.8096 114.6C93.5096 114.7 93.2096 114.75 92.9096 114.75C92.6096 114.85 92.2596 114.95 91.8596 115.05C89.6596 115.55 87.9596 115.9 86.7596 116.1C86.3596 116.2 86.0096 116.25 85.7096 116.25C85.3096 116.25 84.8596 116.25 84.3596 116.25ZM113.01 59.1C113.31 58.6 113.66 58.35 114.06 58.35C114.36 58.35 114.51 58.4 114.51 58.5C114.51 58.6 114.66 58.65 114.96 58.65C115.26 58.65 115.56 58.55 115.86 58.35C116.16 58.05 116.41 57.9 116.61 57.9C117.01 57.9 117.11 57.95 116.91 58.05C116.81 58.15 116.96 58.2 117.36 58.2C117.66 58.2 118.31 58 119.31 57.6C120.31 57.1 121.06 56.65 121.56 56.25C122.06 56.05 122.86 55.5 123.96 54.6C125.06 53.6 125.86 53.1 126.36 53.1C126.66 53.1 126.86 53.15 126.96 53.25C127.06 53.35 127.16 53.4 127.26 53.4C127.36 52.6 127.86 51.9 128.76 51.3C129.76 50.6 130.26 49.65 130.26 48.45C130.26 47.45 129.61 46 128.31 44.1C128.21 43.9 128.01 43.8 127.71 43.8C127.41 43.7 127.26 43.6 127.26 43.5V43.35C127.26 43.15 127.16 42.9 126.96 42.6C126.86 42.2 126.76 41.95 126.66 41.85C126.26 41.65 125.96 41.45 125.76 41.25C125.66 41.05 125.46 40.95 125.16 40.95C124.86 40.95 124.41 40.9 123.81 40.8C123.31 40.7 122.96 40.65 122.76 40.65C122.66 40.45 122.46 40 122.16 39.3C121.86 38.6 121.41 38.25 120.81 38.25C120.41 38.25 120.01 38.5 119.61 39C119.31 39.4 119.01 39.75 118.71 40.05C118.51 40.15 118.16 40.25 117.66 40.35C117.26 40.45 117.01 40.55 116.91 40.65C116.31 41.05 115.61 41.6 114.81 42.3C114.11 42.9 113.41 43.35 112.71 43.65C112.41 44.35 111.86 45 111.06 45.6C110.36 46.2 109.71 46.65 109.11 46.95C108.81 47.55 108.41 48.15 107.91 48.75C107.51 49.35 107.21 49.95 107.01 50.55C107.01 50.65 106.96 50.75 106.86 50.85C106.86 50.85 106.86 50.95 106.86 51.15C106.86 51.45 106.86 51.75 106.86 52.05C106.96 52.25 106.81 52.4 106.41 52.5V54.9C107.21 55.2 107.56 55.85 107.46 56.85C108.06 56.65 108.56 56.7 108.96 57V57.75H109.11C109.71 57.75 110.46 57.95 111.36 58.35C112.26 58.65 112.81 58.9 113.01 59.1ZM125.01 71.85C125.01 71.85 124.96 71.7 124.86 71.4C124.76 71.1 124.81 70.95 125.01 70.95C125.21 71.05 125.41 71.1 125.61 71.1C125.81 71.1 125.96 71.1 126.06 71.1C126.26 71.1 126.31 71.05 126.21 70.95C126.21 70.85 126.26 70.8 126.36 70.8H126.96L127.41 70.2C127.91 70.2 128.41 70.05 128.91 69.75C129.41 69.45 129.86 69.2 130.26 69C130.46 69 130.66 69 130.86 69C131.16 68.9 131.46 68.85 131.76 68.85C132.46 68.85 132.96 69 133.26 69.3V69.45C133.26 69.65 132.91 69.85 132.21 70.05C131.61 70.15 131.21 70.3 131.01 70.5C130.81 70.5 130.61 70.55 130.41 70.65C130.31 70.75 130.16 70.85 129.96 70.95C129.86 71.05 129.71 71.1 129.51 71.1C129.31 71 129.11 71 128.91 71.1C128.61 71.3 128.11 71.5 127.41 71.7C126.81 71.8 126.41 71.85 126.21 71.85C126.01 71.85 125.86 71.85 125.76 71.85C125.76 71.75 125.51 71.75 125.01 71.85ZM87.9596 112.8C88.2596 112.8 88.6096 112.7 89.0096 112.5C89.4096 112.3 89.7596 112.2 90.0596 112.2C91.4596 112 93.2096 111.75 95.3096 111.45C97.4096 111.25 99.4096 110.7 101.31 109.8C106.61 107.4 110.36 104.8 112.56 102C114.76 99.2 115.91 96.55 116.01 94.0501C116.11 93.8501 116.21 93.6 116.31 93.3C116.41 93.1001 116.46 92.9501 116.46 92.8501C116.66 92.55 116.71 92.35 116.61 92.25C116.31 92.0501 116.06 91.7001 115.86 91.2C115.66 90.8 115.61 90.4001 115.71 90.0001C115.61 89.9 115.36 89.6 114.96 89.1C114.66 88.6 114.51 88.1501 114.51 87.75H114.21C113.61 87.45 113.16 87 112.86 86.4C111.46 84.9 109.46 83.5 106.86 82.2C103.76 84.1 100.61 86.1 97.4096 88.2C94.2096 90.3 91.3096 92.5 88.7096 94.8C86.8096 96.4 85.2596 97.9501 84.0596 99.4501C82.8596 101.05 81.9596 102.45 81.3596 103.65C81.2596 103.85 81.1096 103.9 80.9096 103.8C80.7096 103.8 80.5596 103.9 80.4596 104.1V104.4C80.4596 104.6 80.5596 104.85 80.7596 105.15C80.9596 105.45 81.0096 105.7 80.9096 105.9C80.8096 106.4 80.7096 106.85 80.6096 107.25C80.5096 107.75 80.4596 108.25 80.4596 108.75C80.4596 109.45 80.6596 110.05 81.0596 110.55C81.3596 110.85 81.8096 111.15 82.4096 111.45C82.6096 111.55 82.8096 111.65 83.0096 111.75C83.1096 111.85 83.2596 111.95 83.4596 112.05C83.6596 112.15 83.9096 112.15 84.2096 112.05C84.4096 112.05 84.6596 112.05 84.9596 112.05L86.0096 112.5C86.3096 112.5 86.6096 112.55 86.9096 112.65C87.2096 112.85 87.5596 112.9 87.9596 112.8ZM129.419 114.9C127.919 114.9 126.619 114.75 125.519 114.45C124.819 114.25 124.119 114 123.419 113.7C122.719 113.4 121.969 113.05 121.169 112.65L120.869 112.5C120.469 112.3 120.019 112 119.519 111.6C119.019 111.3 118.519 111.05 118.019 110.85C117.619 110.75 117.069 110.45 116.369 109.95C115.869 109.55 115.569 109.15 115.469 108.75C115.269 108.35 115.319 108.1 115.619 108C115.719 108 115.869 108.05 116.069 108.15C116.269 108.35 116.469 108.5 116.669 108.6C116.869 108.7 117.119 108.85 117.419 109.05C117.619 109.25 117.819 109.4 118.019 109.5C118.519 109.7 118.969 109.85 119.369 109.95C119.669 110.15 120.019 110.35 120.419 110.55C121.319 110.95 121.969 111.2 122.369 111.3C122.769 111.4 123.369 111.5 124.169 111.6L126.119 111.75C131.419 112.15 135.869 111.15 139.469 108.75C142.969 106.35 145.919 103.8 148.319 101.1C148.619 100.3 148.919 99.5501 149.219 98.85C149.619 98.25 150.019 97.75 150.419 97.3501C150.519 97.2501 150.619 97.3001 150.719 97.5001C150.919 97.8 151.069 97.9 151.169 97.8C151.369 97.5 151.469 97.0001 151.469 96.3001C151.569 95.7001 151.769 95.2501 152.069 94.9501C152.169 94.85 152.269 94.9501 152.369 95.2501C152.569 95.55 152.719 95.65 152.819 95.55C153.019 95.3501 153.119 94.9501 153.119 94.35C153.219 93.75 153.319 93.4 153.419 93.3C154.419 91.9 155.319 90.6 156.119 89.4C156.919 88.2 157.819 86.75 158.819 85.05C159.719 83.65 160.769 81.85 161.969 79.65C163.269 77.55 164.419 75.6 165.419 73.8C166.419 72.2 167.169 70.5 167.669 68.7L168.119 67.05C168.619 65.15 169.619 62.55 171.119 59.25C172.719 55.85 174.569 52.2 176.669 48.3C178.869 44.3 181.069 40.5 183.269 36.9C183.769 36.3 184.169 35.8 184.469 35.4C184.769 35 185.219 34.5 185.819 33.9C186.019 33.8 186.419 33.35 187.019 32.55C187.619 31.75 188.219 30.95 188.819 30.15C189.519 29.25 189.919 28.75 190.019 28.65C192.919 26.25 196.119 24.35 199.619 22.95C203.219 21.45 206.019 20.7 208.019 20.7C208.819 20.7 209.369 20.7 209.669 20.7C210.069 20.6 210.569 20.6 211.169 20.7L212.219 20.85C212.619 20.95 212.969 21.1 213.269 21.3C213.669 21.4 214.069 21.5 214.469 21.6C214.669 21.7 214.919 21.85 215.219 22.05C215.519 22.25 215.769 22.4 215.969 22.5C216.369 22.8 216.569 23.15 216.569 23.55C216.569 23.85 216.469 24.05 216.269 24.15C216.169 24.25 216.019 24.25 215.819 24.15C215.719 23.95 215.569 23.85 215.369 23.85C215.169 23.85 214.969 23.8 214.769 23.7C214.569 23.6 214.369 23.5 214.169 23.4C213.769 23.4 213.419 23.35 213.119 23.25C212.819 23.15 212.519 23.05 212.219 22.95C211.819 22.85 211.469 22.8 211.169 22.8C210.869 22.8 210.619 22.8 210.419 22.8C210.019 22.8 209.619 22.85 209.219 22.95C209.119 22.95 208.819 23 208.319 23.1C207.919 23.1 207.619 23.15 207.419 23.25C202.819 24.35 199.069 26.45 196.169 29.55C193.269 32.65 190.669 35.8 188.369 39C187.969 39.5 187.419 40.15 186.719 40.95C186.119 41.65 185.719 42.1 185.519 42.3C185.419 42.5 184.969 43.2 184.169 44.4C183.369 45.5 182.569 46.65 181.769 47.85C181.069 48.95 180.669 49.55 180.569 49.65C180.469 49.75 180.269 49.8 179.969 49.8C179.769 49.8 179.619 49.85 179.519 49.95L175.919 57.15L174.419 60L172.469 63.9C171.469 65.8 170.569 67.75 169.769 69.75C168.969 71.65 168.319 73.5 167.819 75.3C167.519 76 167.369 76.8 167.369 77.7C167.369 78.6 167.119 79.15 166.619 79.35C166.319 79.45 166.069 79.3 165.869 78.9C165.669 78.5 165.569 78.85 165.569 79.95C165.769 80.05 165.769 80.25 165.569 80.55C165.469 80.85 165.419 81.1 165.419 81.3C165.519 81.5 165.569 81.8 165.569 82.2C165.569 82.7 165.369 83.15 164.969 83.55C164.669 83.95 164.419 84.4 164.219 84.9C164.019 85.3 163.769 85.4 163.469 85.2C163.169 85.1 162.919 85.05 162.719 85.05L162.569 85.35C162.569 85.65 162.719 86.35 163.019 87.45C163.019 88.05 162.719 88.3501 162.119 88.3501H161.669C161.569 90.45 161.169 91.7 160.469 92.1L159.419 92.8501L159.119 93.45C158.519 94.6501 158.069 95.2001 157.769 95.1001L157.319 96.3001C157.219 96.6 156.969 96.85 156.569 97.05C156.269 97.2501 156.019 97.5 155.819 97.8C155.819 97.9 155.769 97.95 155.669 97.95C155.669 97.95 155.669 98 155.669 98.1C155.669 99.3001 155.119 100.5 154.019 101.7C153.019 102.9 151.969 103.95 150.869 104.85C150.669 105.25 150.419 105.65 150.119 106.05C149.819 106.45 149.469 106.8 149.069 107.1C148.569 107.6 147.969 107.9 147.269 108C146.669 108.1 146.069 108.4 145.469 108.9C145.269 109 145.169 109.25 145.169 109.65C145.269 110.15 145.219 110.45 145.019 110.55C142.819 111.95 140.269 113 137.369 113.7C134.469 114.5 131.819 114.9 129.419 114.9ZM154.469 72.15C153.169 72.15 152.069 71.4 151.169 69.9C150.269 68.3 150.019 67.1 150.419 66.3C150.519 66.1 150.619 65.85 150.719 65.55C150.919 65.15 151.069 64.9 151.169 64.8C151.369 64.6 151.469 64.55 151.469 64.65C151.569 64.65 151.669 64.6 151.769 64.5C151.869 64.3 151.819 64.15 151.619 64.05C151.519 63.85 151.519 63.7 151.619 63.6L153.419 56.85C153.419 56.75 153.469 56.65 153.569 56.55C153.669 56.45 153.719 56.35 153.719 56.25L154.019 53.55C154.019 53.45 154.119 53.45 154.319 53.55C154.519 53.55 154.669 53.5 154.769 53.4C154.969 52.9 154.919 52.65 154.619 52.65C154.319 52.65 154.169 52.6 154.169 52.5C154.269 51.7 154.419 51.15 154.619 50.85C154.819 50.55 154.969 50.05 155.069 49.35L155.519 46.8C155.519 46.9 155.569 47.3 155.669 48C155.769 48.6 156.019 48.9 156.419 48.9C156.919 48.9 157.069 48.8 156.869 48.6C156.669 48.4 156.519 48.15 156.419 47.85C156.319 47.35 156.419 46.95 156.719 46.65C156.819 46.55 157.019 46.75 157.319 47.25C157.619 47.65 157.769 47.85 157.769 47.85C157.869 47.65 157.919 47.4 157.919 47.1C157.919 46.8 157.819 46.6 157.619 46.5C157.219 46.2 156.769 46 156.269 45.9C155.869 45.7 155.669 45.5 155.669 45.3C155.669 45 155.719 44.7 155.819 44.4C155.819 44.3 155.869 44.2 155.969 44.1C156.069 44 156.119 43.9 156.119 43.8C156.119 43.6 156.019 43.5 155.819 43.5C155.719 43.5 155.669 43.45 155.669 43.35V41.85C155.669 41.55 155.669 41.25 155.669 40.95C155.669 40.55 155.569 40.15 155.369 39.75C155.069 39.05 154.619 38.45 154.019 37.95C153.419 37.45 152.669 37.2 151.769 37.2H151.619L151.319 37.5H151.019C150.319 38 149.519 38.5 148.619 39C147.819 39.4 147.119 39.7 146.519 39.9L146.219 40.05C146.119 40.15 145.969 40.2 145.769 40.2C145.369 40.2 145.069 40 144.869 39.6C144.769 39.2 144.919 38.95 145.319 38.85C146.119 38.35 146.969 37.95 147.869 37.65C148.769 37.35 149.569 36.9 150.269 36.3C150.469 35.8 150.969 35.4 151.769 35.1C151.969 34.9 152.119 34.85 152.219 34.95C152.319 35.05 152.419 35.1 152.519 35.1C153.019 35.1 153.319 34.95 153.419 34.65C153.619 34.25 153.769 34.15 153.869 34.35H155.369C157.569 34.35 159.269 35.25 160.469 37.05C161.669 38.75 162.219 41.05 162.119 43.95C162.119 44.05 161.969 44.2 161.669 44.4C161.469 44.5 161.369 44.65 161.369 44.85C161.369 44.95 161.469 45 161.669 45C161.969 44.9 162.119 44.95 162.119 45.15V45.75C162.119 46.65 162.069 47.15 161.969 47.25C161.769 49.45 161.269 51.75 160.469 54.15C159.769 56.45 159.019 58.7 158.219 60.9C157.919 60.9 157.719 61.05 157.619 61.35C157.519 61.65 157.369 61.8 157.169 61.8C156.869 61.8 156.569 61.7 156.269 61.5C156.069 61.2 155.969 61.2 155.969 61.5C155.969 61.9 156.169 62.2 156.569 62.4C156.969 62.5 157.219 62.6 157.319 62.7C157.419 62.8 157.619 62.85 157.919 62.85C158.219 62.85 158.519 62.75 158.819 62.55C159.119 62.35 159.419 62.15 159.719 61.95C160.219 61.55 160.869 61 161.669 60.3C162.569 59.5 163.369 58.8 164.069 58.2C164.769 57.5 165.119 57.15 165.119 57.15C164.919 56.95 165.069 56.75 165.569 56.55L166.319 55.65C166.419 55.15 166.719 54.6 167.219 54C167.719 53.4 168.169 53.05 168.569 52.95L168.869 52.35C168.969 52.35 169.069 52.4 169.169 52.5C169.269 52.5 169.369 52.45 169.469 52.35C169.569 52.35 169.569 52.25 169.469 52.05C169.469 51.85 169.519 51.75 169.619 51.75L170.369 50.7C170.569 50.1 170.769 49.75 170.969 49.65C170.869 49.35 170.969 49.15 171.269 49.05C171.469 49.05 171.669 49.1 171.869 49.2C172.169 49.2 172.319 49 172.319 48.6C172.319 48.4 172.369 48.15 172.469 47.85C172.569 47.45 172.819 47.3 173.219 47.4L173.369 47.1C173.369 47 173.569 46.85 173.969 46.65C174.369 46.35 174.619 46.15 174.719 46.05L175.469 45C175.769 44.5 176.069 44.25 176.369 44.25C176.669 44.15 176.869 44.1 176.969 44.1C177.069 44.1 177.119 44.2 177.119 44.4C177.119 45.1 176.769 45.8 176.069 46.5L174.869 47.85C174.769 47.95 174.669 48 174.569 48C174.469 48 174.369 48.1 174.269 48.3C174.169 48.4 174.069 48.55 173.969 48.75C173.869 48.95 173.769 49.15 173.669 49.35L172.469 50.7L164.369 60.3C163.469 61.3 162.869 61.95 162.569 62.25C162.369 62.55 162.069 63 161.669 63.6C161.569 63.7 161.419 63.7 161.219 63.6C161.019 63.5 160.819 63.55 160.619 63.75L160.469 64.65L159.719 65.4C159.619 65.5 159.669 65.55 159.869 65.55C160.169 65.55 160.269 65.6 160.169 65.7L158.069 69.3C156.969 71.2 155.769 72.15 154.469 72.15ZM149.093 114.9C147.593 114.9 146.293 114.75 145.193 114.45C144.493 114.25 143.793 114 143.093 113.7C142.393 113.4 141.643 113.05 140.843 112.65L140.543 112.5C140.143 112.3 139.693 112 139.193 111.6C138.693 111.3 138.193 111.05 137.693 110.85C137.293 110.75 136.743 110.45 136.043 109.95C135.543 109.55 135.243 109.15 135.143 108.75C134.943 108.35 134.993 108.1 135.293 108C135.393 108 135.543 108.05 135.743 108.15C135.943 108.35 136.143 108.5 136.343 108.6C136.543 108.7 136.793 108.85 137.093 109.05C137.293 109.25 137.493 109.4 137.693 109.5C138.193 109.7 138.643 109.85 139.043 109.95C139.343 110.15 139.693 110.35 140.093 110.55C140.993 110.95 141.643 111.2 142.043 111.3C142.443 111.4 143.043 111.5 143.843 111.6L145.793 111.75C149.293 111.95 152.293 111.5 154.793 110.4C157.293 109.3 159.543 107.85 161.543 106.05C163.443 104.35 165.193 102.6 166.793 100.8C167.093 100 167.443 99.2501 167.843 98.5501C168.143 97.8501 168.493 97.3501 168.893 97.05C168.993 96.95 169.093 97 169.193 97.2001C169.293 97.5001 169.393 97.6001 169.493 97.5001C169.693 97.2001 169.843 96.7 169.943 96C170.043 95.4001 170.193 94.9501 170.393 94.65C170.593 94.45 170.793 94.5 170.993 94.8C171.093 95.1001 171.193 95.2001 171.293 95.1001C171.493 94.9 171.593 94.5 171.593 93.9001C171.593 93.4001 171.643 93.0501 171.743 92.8501C172.843 91.45 173.793 90.15 174.593 88.9501C175.393 87.75 176.293 86.35 177.293 84.75C177.793 83.95 178.443 83.05 179.243 82.05C179.943 81.05 180.643 80.05 181.343 79.05C182.143 77.35 183.043 75.95 184.043 74.85V74.55C184.043 74.15 184.143 73.75 184.343 73.35C184.543 72.95 184.693 72.6 184.793 72.3C184.993 71.5 185.193 71 185.393 70.8C185.593 70.6 185.743 70.05 185.843 69.15H185.993C185.493 67.95 185.393 66.9 185.693 66C185.893 65.6 186.243 65.15 186.743 64.65C187.343 64.05 187.793 63.55 188.093 63.15C188.293 62.65 188.343 62.35 188.243 62.25V61.8C188.243 61.1 188.393 60.5 188.693 60C189.093 59.5 189.443 58.9 189.743 58.2C189.843 57.8 190.043 57.6 190.343 57.6H190.793C190.993 57.6 191.093 57.45 191.093 57.15C191.093 56.95 191.043 56.7 190.943 56.4C190.943 56 190.893 55.6 190.793 55.2C190.893 54.5 191.193 54.05 191.693 53.85H191.993C192.193 52.55 192.393 51.65 192.593 51.15C192.793 50.55 193.043 50.05 193.343 49.65L194.693 47.85L195.143 46.2C195.343 45.8 195.543 45.5 195.743 45.3C195.943 45 196.143 44.75 196.343 44.55V44.4C196.443 44.1 196.593 43.85 196.793 43.65C196.993 43.35 197.143 43.1 197.243 42.9L197.843 41.7C197.843 41.5 198.043 41.05 198.443 40.35C198.843 39.65 199.093 39.25 199.193 39.15C199.793 38.05 200.243 37.3 200.543 36.9C200.943 36.5 201.543 35.8 202.343 34.8C202.543 34.4 202.843 33.9 203.243 33.3C203.743 32.6 204.193 31.95 204.593 31.35L202.193 31.8C201.993 31.9 201.893 32 201.893 32.1C201.893 32.1 201.793 32.1 201.593 32.1C201.393 32.2 201.093 32.3 200.693 32.4C200.293 32.5 199.993 32.55 199.793 32.55C199.493 32.55 199.093 32.55 198.593 32.55C198.093 32.45 197.593 32.4 197.093 32.4C196.993 32.4 196.893 32.3 196.793 32.1C196.693 31.9 196.543 31.85 196.343 31.95C196.243 31.95 196.043 32.05 195.743 32.25C195.443 32.45 195.193 32.6 194.993 32.7C194.893 32.7 194.793 32.7 194.693 32.7C194.593 32.6 194.493 32.6 194.393 32.7C194.293 32.7 194.143 32.75 193.943 32.85C193.843 32.95 193.693 33.05 193.493 33.15C192.993 33.25 192.443 33.4 191.843 33.6C191.243 33.7 190.593 33.9 189.893 34.2H189.593C189.293 34.2 189.143 34.05 189.143 33.75C189.143 33.15 189.443 32.8 190.043 32.7C190.743 32.5 191.593 32.2 192.593 31.8C193.593 31.4 194.593 31.1 195.593 30.9C195.893 30.9 196.143 30.85 196.343 30.75C196.643 30.65 196.893 30.6 197.093 30.6C197.393 30.6 197.643 30.55 197.843 30.45C198.143 30.35 198.443 30.3 198.743 30.3C198.943 30.1 199.093 30 199.193 30C199.993 30 200.793 29.8 201.593 29.4C202.393 28.9 203.293 28.4 204.293 27.9C204.893 27.7 205.443 27.3 205.943 26.7C206.543 26.1 206.943 25.75 207.143 25.65C207.343 25.45 207.493 25.25 207.593 25.05C207.793 24.85 208.093 24.65 208.493 24.45C208.893 23.85 209.393 23.2 209.993 22.5C210.693 21.8 211.593 21.4 212.693 21.3C213.093 21.3 213.793 21.4 214.793 21.6C215.893 21.7 216.493 21.75 216.593 21.75C216.993 21.85 217.193 22.2 217.193 22.8C217.193 23.8 216.843 24.5 216.143 24.9C215.943 25 215.843 25.3 215.843 25.8C215.943 26.2 215.893 26.5 215.693 26.7L213.443 27.9C212.843 28.2 212.393 28.5 212.093 28.8C211.893 29 211.443 29.2 210.743 29.4C210.543 29.4 210.243 29.45 209.843 29.55C209.543 29.65 209.243 29.75 208.943 29.85C208.643 30.45 208.293 30.95 207.893 31.35C207.593 31.65 207.193 32.25 206.693 33.15C205.693 34.75 205.193 35.7 205.193 36C205.193 36.2 205.043 36.55 204.743 37.05C204.643 37.15 204.543 37.4 204.443 37.8C204.343 38.1 204.243 38.35 204.143 38.55L202.043 41.7C202.043 41.8 201.843 42.05 201.443 42.45C201.043 42.75 200.793 43 200.693 43.2C200.593 43.4 200.543 43.55 200.543 43.65C200.643 43.75 200.693 43.85 200.693 43.95C200.693 44.25 200.543 44.45 200.243 44.55C200.043 44.65 199.943 44.75 199.943 44.85C199.843 44.95 199.743 45 199.643 45C199.643 44.9 199.543 44.95 199.343 45.15C199.243 45.25 199.143 45.55 199.043 46.05C199.043 46.45 198.993 46.7 198.893 46.8C198.293 47.8 197.943 48.8 197.843 49.8C197.743 50.7 197.343 51.7 196.643 52.8C196.043 54.1 195.893 54.75 196.193 54.75C196.493 54.75 196.643 54.75 196.643 54.75C198.043 53.35 200.043 51.3 202.643 48.6C205.343 45.8 208.093 43.15 210.893 40.65C211.193 40.35 211.493 39.95 211.793 39.45C212.093 38.95 212.393 38.6 212.693 38.4C213.393 37.7 214.143 37.15 214.943 36.75C215.743 36.25 216.493 35.7 217.193 35.1C217.693 34.7 218.143 34.45 218.543 34.35C219.043 34.25 219.493 34.05 219.893 33.75C220.093 33.65 220.143 33.55 220.043 33.45C219.943 33.25 219.993 33.1 220.193 33C221.293 32.4 221.893 32.05 221.993 31.95C222.093 31.85 222.493 31.7 223.193 31.5C224.293 31.1 225.543 30.9 226.943 30.9C227.843 30.9 228.393 30.95 228.593 31.05C229.093 31.35 229.643 31.6 230.243 31.8C230.843 32 231.143 32.6 231.143 33.6C231.143 34.1 231.193 34.4 231.293 34.5C231.393 34.5 231.443 34.85 231.443 35.55C231.443 36.05 231.343 36.85 231.143 37.95C231.043 39.05 230.943 39.9 230.843 40.5L230.243 44.25C230.143 44.55 230.143 44.85 230.243 45.15C230.343 45.45 230.343 45.75 230.243 46.05C230.143 46.15 229.993 46.3 229.793 46.5C229.593 46.7 229.443 46.9 229.343 47.1C228.643 47.2 228.143 47.55 227.843 48.15C227.643 48.65 227.893 48.85 228.593 48.75C228.493 48.85 228.293 49 227.993 49.2C227.793 49.4 227.643 49.6 227.543 49.8C227.443 49.9 227.493 50 227.693 50.1C227.893 50.1 227.793 50.45 227.393 51.15C227.093 51.65 226.793 52.3 226.493 53.1C226.193 53.9 225.893 54.55 225.593 55.05C225.293 55.45 224.993 55.7 224.693 55.8C224.493 55.9 224.243 56.15 223.943 56.55C223.843 56.75 223.793 56.95 223.793 57.15C223.793 57.35 223.693 57.55 223.493 57.75C223.393 57.95 223.193 58.1 222.893 58.2C222.693 58.3 222.493 58.45 222.293 58.65C219.093 62.45 215.193 65.9 210.593 69C206.093 72.1 201.293 74.05 196.193 74.85C195.893 74.85 195.593 74.85 195.293 74.85C195.093 74.95 194.893 75 194.693 75C193.093 75 191.843 74.6 190.943 73.8C190.143 73 189.393 72.15 188.693 71.25C188.493 71.95 188.293 72.6 188.093 73.2C187.893 73.9 187.693 74.6 187.493 75.3C187.293 76 187.143 76.8 187.043 77.7C187.043 78.6 186.793 79.15 186.293 79.35C185.993 79.45 185.743 79.3 185.543 78.9C185.343 78.5 185.243 78.85 185.243 79.95C185.443 80.05 185.493 80.25 185.393 80.55C185.193 80.85 185.093 81.1 185.093 81.3C185.193 81.5 185.243 81.8 185.243 82.2C185.243 82.7 185.093 83.15 184.793 83.55C184.393 83.95 184.093 84.4 183.893 84.9C183.793 85.2 183.593 85.35 183.293 85.35C183.193 85.35 183.043 85.3 182.843 85.2C182.643 85.1 182.493 85.05 182.393 85.05C182.293 85.05 182.243 85.15 182.243 85.35C182.243 85.55 182.393 86.25 182.693 87.45C182.693 88.05 182.393 88.3501 181.793 88.3501H181.343C181.243 89.4501 181.093 90.25 180.893 90.75C180.693 91.35 180.443 91.8 180.143 92.1L179.093 92.8501C178.093 93.6501 177.393 94.8001 176.993 96.3001C176.893 96.6 176.693 96.85 176.393 97.05C175.993 97.2501 175.693 97.5 175.493 97.8C175.493 97.9 175.493 97.95 175.493 97.95C175.393 97.95 175.343 98 175.343 98.1C175.343 99.3001 174.843 100.5 173.843 101.7C172.743 102.9 171.643 103.95 170.543 104.85C170.343 105.25 170.093 105.65 169.793 106.05C169.493 106.45 169.143 106.8 168.743 107.1C168.243 107.6 167.693 107.9 167.093 108C166.393 108.1 165.743 108.4 165.143 108.9C164.943 109 164.893 109.25 164.993 109.65C165.093 110.15 165.043 110.45 164.843 110.55C162.543 111.95 159.943 113 157.043 113.7C154.143 114.5 151.493 114.9 149.093 114.9ZM196.643 72C197.543 72 198.843 71.8 200.543 71.4C202.243 70.9 203.793 70.25 205.193 69.45C205.693 69.25 206.143 69 206.543 68.7C207.043 68.3 207.493 67.9 207.893 67.5C208.293 67.1 208.543 66.7 208.643 66.3C209.043 65.7 209.643 65.05 210.443 64.35L211.193 63.9C211.593 63.5 211.993 62.8 212.393 61.8H212.693C213.093 61.7 213.343 61.5 213.443 61.2L214.193 60.9C214.193 60.6 214.293 60.35 214.493 60.15C214.693 59.75 215.043 59.3 215.543 58.8C216.043 58.2 216.293 57.7 216.293 57.3C216.293 57.2 216.193 57.05 215.993 56.85C216.093 56.65 216.293 56.3 216.593 55.8C216.993 55.2 217.243 54.8 217.343 54.6L218.243 54.45L218.693 53.55V53.25C219.993 53.25 220.543 52.75 220.343 51.75L221.393 48.9C221.593 48.1 221.893 47.55 222.293 47.25C222.293 46.85 222.343 46.6 222.443 46.5C222.543 46.4 222.643 46.2 222.743 45.9C223.043 45.1 223.343 44.05 223.643 42.75C224.043 41.45 224.243 40.8 224.243 40.8L223.793 39.9C223.793 39.7 223.643 39.4 223.343 39C223.143 38.6 223.093 38.25 223.193 37.95C223.393 37.25 223.743 36.8 224.243 36.6C224.843 36.4 224.943 36.25 224.543 36.15H224.393C224.093 36.15 223.743 36.2 223.343 36.3C223.043 36.4 222.643 36.55 222.143 36.75C221.543 36.95 220.993 37 220.493 36.9C219.993 36.8 219.593 36.85 219.293 37.05C218.293 37.35 217.243 37.85 216.143 38.55C215.043 39.15 213.843 40 212.543 41.1C212.443 41.2 212.293 41.4 212.093 41.7C211.893 42 211.693 42.25 211.493 42.45C211.393 42.55 211.193 42.6 210.893 42.6C210.693 42.6 210.493 42.7 210.293 42.9C210.193 43 210.193 43.15 210.293 43.35C210.393 43.55 210.393 43.75 210.293 43.95C210.093 44.05 209.893 44.15 209.693 44.25C209.493 44.35 209.293 44.5 209.093 44.7L208.643 45.45C206.943 47.35 204.843 49.45 202.343 51.75C199.943 54.05 197.893 56.3 196.193 58.5L217.793 50.25C218.393 49.95 218.943 49.8 219.443 49.8C219.643 49.7 219.893 49.8 220.193 50.1C220.293 50.3 220.193 50.5 219.893 50.7C219.693 50.9 219.543 50.95 219.443 50.85L218.693 50.7C218.593 50.8 218.393 50.95 218.093 51.15C217.893 51.35 217.693 51.45 217.493 51.45L216.743 51.75C216.643 51.85 216.443 51.9 216.143 51.9C215.843 51.9 215.643 51.95 215.543 52.05C215.343 52.15 215.193 52.25 215.093 52.35C214.993 52.35 214.843 52.45 214.643 52.65C212.343 53.65 209.843 54.8 207.143 56.1C204.443 57.3 201.943 58.5 199.643 59.7C196.743 61.3 194.743 62.85 193.643 64.35C192.543 65.75 191.993 67 191.993 68.1C191.993 69 192.243 69.8 192.743 70.5C193.243 71.1 193.843 71.5 194.543 71.7C195.243 71.9 195.943 72 196.643 72ZM237.863 72.75C237.263 72.75 236.963 72.4 236.963 71.7C236.963 71.2 237.113 70.6 237.413 69.9C238.213 68.2 239.113 65.8 240.113 62.7C241.213 59.6 242.563 56.95 244.163 54.75L251.663 39.3C251.063 39.3 250.463 39.45 249.863 39.75C249.363 40.05 249.113 40.3 249.113 40.5C249.113 40.9 248.563 41.3 247.463 41.7C246.363 42.1 245.763 42.35 245.663 42.45C244.163 42.85 242.763 43.3 241.463 43.8C240.463 44.9 239.463 46 238.463 47.1C237.563 48.2 236.713 49.3 235.913 50.4C235.813 50.5 235.713 50.55 235.613 50.55C234.713 51.55 233.963 52.3 233.363 52.8C232.763 53.3 232.113 53.75 231.413 54.15C231.013 54.45 230.613 54.55 230.213 54.45C229.713 54.25 229.663 54.05 230.063 53.85C230.563 53.65 231.363 52.95 232.463 51.75C233.563 50.55 234.413 49.65 235.013 49.05C235.513 48.75 235.663 48.75 235.463 49.05C235.363 49.35 235.513 49.3 235.913 48.9L239.663 44.1L239.813 43.95C239.313 43.65 239.063 42.85 239.063 41.55C239.063 40.55 239.263 39.75 239.663 39.15C239.663 39.05 239.763 39 239.963 39L243.113 38.1C243.413 38.1 243.613 38.05 243.713 37.95C243.913 37.75 244.113 37.5 244.313 37.2C244.613 36.8 244.963 36.3 245.363 35.7L247.163 33.3L248.363 31.65C248.363 31.35 248.563 31 248.963 30.6C249.463 30.1 249.863 29.75 250.163 29.55C250.563 28.95 250.813 28.5 250.913 28.2C251.113 27.8 251.413 27.3 251.813 26.7C251.813 26.6 251.963 26.55 252.263 26.55C252.563 26.45 252.713 26.35 252.713 26.25C252.813 25.25 252.963 24.8 253.163 24.9C253.463 24.9 253.613 24.75 253.613 24.45C253.613 24.15 253.813 23.9 254.213 23.7L254.963 22.8C254.963 22.7 255.113 22.5 255.413 22.2V22.05C255.413 21.85 255.413 21.6 255.413 21.3C255.413 21 255.513 20.7 255.713 20.4C255.913 20.2 256.063 20.1 256.163 20.1C256.263 20.1 256.313 20.1 256.313 20.1C256.313 20 256.263 19.95 256.163 19.95C256.163 19.85 256.163 19.8 256.163 19.8C256.163 19.4 256.363 19.15 256.763 19.05C257.163 18.95 257.363 18.8 257.363 18.6C257.563 17.2 258.763 16.15 260.963 15.45C263.163 14.75 265.113 14.4 266.813 14.4C268.513 14.4 269.363 14.65 269.363 15.15C269.363 15.35 269.063 15.7 268.463 16.2C268.163 16.3 267.663 16.75 266.963 17.55C266.263 18.25 265.613 19.1 265.013 20.1L263.813 21.9C263.713 22.1 263.563 22.35 263.363 22.65C263.263 22.85 263.113 23.05 262.913 23.25C262.213 24.45 261.263 26.15 260.063 28.35C258.963 30.45 257.763 32.8 256.463 35.4L260.363 34.95C260.663 34.95 260.763 35 260.663 35.1C260.663 35.2 260.813 35.2 261.113 35.1C261.613 35.1 261.963 35.05 262.163 34.95C262.363 34.75 262.713 34.6 263.213 34.5C264.013 34.4 264.913 34.35 265.913 34.35C267.013 34.25 267.863 34.2 268.463 34.2C268.863 34.2 269.363 34.2 269.963 34.2C270.563 34.2 271.013 34.25 271.313 34.35C271.513 34.35 271.563 34.45 271.463 34.65C271.463 34.75 271.513 34.8 271.613 34.8C271.813 34.8 271.963 34.75 272.063 34.65C272.263 34.55 272.463 34.5 272.663 34.5C272.763 34.4 272.913 34.4 273.113 34.5C273.413 34.5 273.613 34.5 273.713 34.5L275.213 34.95C275.813 35.05 276.113 35.4 276.113 36C276.213 36.6 275.963 36.8 275.363 36.6C274.963 36.4 274.613 36.3 274.313 36.3H270.563C269.863 36.3 269.213 36.3 268.613 36.3C268.013 36.3 267.413 36.35 266.813 36.45C266.613 36.55 266.513 36.45 266.513 36.15C266.613 35.85 266.563 35.7 266.363 35.7C266.263 35.7 266.113 35.85 265.913 36.15C265.713 36.35 265.563 36.45 265.463 36.45L264.713 36.9C263.113 37.3 261.413 37.75 259.613 38.25C257.813 38.65 256.063 39.1 254.363 39.6C252.863 42.7 251.413 45.65 250.013 48.45C248.713 51.15 247.713 53.25 247.013 54.75C246.813 55.35 246.713 55.7 246.713 55.8C246.713 56.6 247.163 57 248.063 57C248.663 57 249.263 56.85 249.863 56.55L251.363 55.95C253.763 53.75 256.263 51.9 258.863 50.4C258.963 50.4 259.013 50.4 259.013 50.4C259.113 50.3 259.213 50.25 259.313 50.25C259.613 50.25 259.813 50.45 259.913 50.85C260.013 51.15 259.913 51.4 259.613 51.6C256.713 53.2 254.013 55.25 251.513 57.75C251.413 57.95 251.313 58.15 251.213 58.35C251.113 58.55 250.963 58.75 250.763 58.95C250.563 59.15 250.263 59.5 249.863 60C249.563 60.5 249.413 60.8 249.413 60.9C249.313 61.2 249.163 61.3 248.963 61.2C248.863 61.1 248.563 61.25 248.063 61.65C247.963 61.75 247.863 61.95 247.763 62.25C247.763 62.55 247.713 62.8 247.613 63C247.413 63.3 247.213 63.55 247.013 63.75C246.813 63.85 246.713 63.95 246.713 64.05C246.613 64.45 246.413 64.7 246.113 64.8C245.913 64.8 245.713 64.9 245.513 65.1C245.413 65.1 245.363 65.15 245.363 65.25C245.363 66.15 245.263 66.55 245.063 66.45C244.863 66.35 244.713 66.45 244.613 66.75C244.213 67.15 243.913 67.35 243.713 67.35C243.113 67.55 242.863 67.7 242.963 67.8C243.163 67.9 243.313 68 243.413 68.1C243.613 68.1 243.463 68.25 242.963 68.55C242.763 68.65 242.563 68.95 242.363 69.45C242.163 69.85 241.963 70.15 241.763 70.35C241.463 70.55 241.163 70.7 240.863 70.8C240.563 70.9 240.313 71.1 240.113 71.4C239.213 72.3 238.463 72.75 237.863 72.75ZM246.413 37.5C246.813 37.4 247.163 37.3 247.463 37.2C247.863 37.1 248.263 36.95 248.663 36.75L253.163 36C254.363 33.6 255.413 31.45 256.313 29.55C257.213 27.55 257.863 26.1 258.263 25.2C258.263 25.2 258.163 25.15 257.963 25.05C257.863 24.85 257.813 24.65 257.813 24.45C257.613 24.35 257.363 24.2 257.063 24C256.863 23.8 256.663 23.65 256.463 23.55L255.113 24.9L253.463 27.15C253.463 27.25 253.313 27.35 253.013 27.45C252.813 27.45 252.713 27.5 252.713 27.6C252.713 27.9 252.563 28.2 252.263 28.5C252.063 28.8 251.863 28.9 251.663 28.8L251.063 30.3C251.063 30.6 250.913 30.85 250.613 31.05L249.563 32.4C249.563 32.5 249.513 32.6 249.413 32.7C249.413 32.7 249.413 32.8 249.413 33C249.313 33.2 249.163 33.45 248.963 33.75C248.763 34.05 248.513 34.35 248.213 34.65C248.113 34.65 248.063 34.7 248.063 34.8C248.063 34.8 248.013 34.8 247.913 34.8L247.463 35.7C247.063 35.9 246.813 36 246.713 36L246.563 36.3C246.563 36.9 246.513 37.3 246.413 37.5Z" fill="#D0A87D"/>
</svg>
