<svg width="60" height="60" viewBox="0 0 60 60" fill="none" xmlns="http://www.w3.org/2000/svg">
<path d="M31.395 7.45503C30.4853 7.14717 29.4997 7.14717 28.59 7.45503L11.65 13.1925C11.0982 13.3718 10.6109 13.7084 10.248 14.161C9.88513 14.6136 9.66249 15.1625 9.6075 15.74C8.765 26.305 10.2275 34.1175 13.7 40.02C17.06 45.7325 22.435 49.885 29.9925 52.98C37.5575 49.885 42.9375 45.7325 46.2975 40.02C49.7725 34.12 51.235 26.305 50.3925 15.74C50.3375 15.1625 50.1149 14.6136 49.752 14.161C49.3891 13.7084 48.9018 13.3718 48.35 13.1925L31.395 7.45503ZM27.3875 3.90503C29.0768 3.33232 30.9076 3.33144 32.5975 3.90253L49.5525 9.64003C50.7979 10.0548 51.8947 10.825 52.7077 11.8556C53.5206 12.8862 54.0142 14.1323 54.1275 15.44C55.01 26.465 53.5275 35.13 49.53 41.9225C45.52 48.735 39.1275 53.4175 30.68 56.745C30.2382 56.9192 29.7468 56.9192 29.305 56.745C20.865 53.4175 14.475 48.735 10.4675 41.9225C6.4725 35.13 4.99 26.4625 5.87 15.44C5.98331 14.1323 6.47686 12.8862 7.28982 11.8556C8.10278 10.825 9.19958 10.0548 10.445 9.64003L27.3875 3.90503Z" fill="#D0A87D"/>
<path opacity="0.5" d="M30 50C42.58 44.9 48.515 35.955 47.3575 19.0825C47.2275 17.165 45.9175 15.5425 44.1 14.91L32.05 10.715C31.3909 10.4855 30.6979 10.3681 30 10.3675V50Z" fill="#D0A87D"/>
<path opacity="0.5" d="M30 49.9997C42.58 44.8997 48.515 35.9547 47.3575 19.0822C47.2275 17.1647 45.9175 15.5422 44.1 14.9097L32.05 10.7147C31.3909 10.4852 30.6979 10.3677 30 10.3672V49.9997Z" fill="#D0A87D"/>
<path opacity="0.5" d="M30 49.9997C42.58 44.8997 48.515 35.9547 47.3575 19.0822C47.2275 17.1647 45.9175 15.5422 44.1 14.9097L32.05 10.7147C31.3909 10.4852 30.6979 10.3677 30 10.3672V49.9997Z" fill="#D0A87D"/>
<path opacity="0.5" d="M30 49.9997C42.58 44.8997 48.515 35.9547 47.3575 19.0822C47.2275 17.1647 45.9175 15.5422 44.1 14.9097L32.05 10.7147C31.3909 10.4852 30.6979 10.3677 30 10.3672V49.9997Z" fill="#D0A87D"/>
<path opacity="0.5" d="M30 49.9997C42.58 44.8997 48.515 35.9547 47.3575 19.0822C47.2275 17.1647 45.9175 15.5422 44.1 14.9097L32.05 10.7147C31.3909 10.4852 30.6979 10.3677 30 10.3672V49.9997Z" fill="#D0A87D"/>
<path opacity="0.5" d="M30 49.9997C42.58 44.8997 48.515 35.9547 47.3575 19.0822C47.2275 17.1647 45.9175 15.5422 44.1 14.9097L32.05 10.7147C31.3909 10.4852 30.6979 10.3677 30 10.3672V49.9997Z" fill="#D0A87D"/>
<path opacity="0.5" d="M30 49.9997C42.58 44.8997 48.515 35.9547 47.3575 19.0822C47.2275 17.1647 45.9175 15.5422 44.1 14.9097L32.05 10.7147C31.3909 10.4852 30.6979 10.3677 30 10.3672V49.9997Z" fill="#D0A87D"/>
</svg>
