<svg width="60" height="60" viewBox="0 0 60 60" fill="none" xmlns="http://www.w3.org/2000/svg">
<path fill-rule="evenodd" clip-rule="evenodd" d="M24.8801 9.02731C25.0721 8.81088 25.3207 8.65173 25.5983 8.56762C25.876 8.48351 26.1716 8.47775 26.4524 8.55098C29.9257 9.45071 35.2625 11.7887 39.7599 15.9511C44.2918 20.1509 48 26.2435 48 34.5527C48 37.8434 47.2577 41.8688 44.6864 45.2031C42.0744 48.5965 37.743 51.0559 31.0218 51.47H31.0031C22.0458 51.9183 15.7569 47.292 13.2294 40.9193C10.7239 34.6025 11.9798 26.7447 17.6266 20.7829C17.776 20.6247 17.957 20.4993 18.158 20.4147C18.359 20.3302 18.5755 20.2883 18.7937 20.2918C19.012 20.2953 19.227 20.3442 19.4252 20.4352C19.6233 20.5262 19.8001 20.6573 19.9442 20.8202L23.9061 25.2908C25.3562 22.7193 26.0609 20.4778 26.1674 18.2331C26.277 15.9511 25.7696 13.5415 24.6014 10.6368C24.4937 10.3689 24.4631 10.0766 24.5128 9.79236C24.5626 9.50815 24.6909 9.24328 24.8833 9.02731M24.7267 32.7034C24.7267 32.0842 24.9742 31.4903 25.4147 31.0524C25.8552 30.6145 26.4526 30.3685 27.0756 30.3685C27.6986 30.3685 28.2961 30.6145 28.7366 31.0524C29.1771 31.4903 29.4246 32.0842 29.4246 32.7034C29.4246 33.3227 29.1771 33.9166 28.7366 34.3545C28.2961 34.7924 27.6986 35.0384 27.0756 35.0384C26.4526 35.0384 25.8552 34.7924 25.4147 34.3545C24.9742 33.9166 24.7267 33.3227 24.7267 32.7034ZM37.2231 33.0957C37.5167 32.8034 37.6815 32.4071 37.6812 31.9941C37.6809 31.581 37.5155 31.185 37.2215 30.8931C36.9274 30.6012 36.5288 30.4374 36.1132 30.4377C35.6977 30.438 35.2993 30.6024 35.0056 30.8947L24.7204 41.1154C24.5709 41.259 24.4516 41.4308 24.3695 41.6207C24.2874 41.8106 24.2442 42.0148 24.2424 42.2215C24.2406 42.4282 24.2802 42.6332 24.359 42.8245C24.4377 43.0158 24.554 43.1896 24.701 43.3357C24.848 43.4819 25.0229 43.5975 25.2153 43.6758C25.4078 43.754 25.614 43.7934 25.8219 43.7916C26.0298 43.7898 26.2353 43.7469 26.4264 43.6653C26.6174 43.5837 26.7902 43.4651 26.9347 43.3164L37.2231 33.0957ZM33.0576 41.5108C33.0576 40.8915 33.3051 40.2976 33.7456 39.8597C34.1861 39.4218 34.7836 39.1758 35.4065 39.1758C36.0295 39.1758 36.627 39.4218 37.0675 39.8597C37.508 40.2976 37.7555 40.8915 37.7555 41.5108C37.7555 42.13 37.508 42.7239 37.0675 43.1618C36.627 43.5997 36.0295 43.8457 35.4065 43.8457C34.7836 43.8457 34.1861 43.5997 33.7456 43.1618C33.3051 42.7239 33.0576 42.13 33.0576 41.5108Z" fill="#D0A87D"/>
</svg>
